<svg width="34" height="34" viewBox="0 0 34 34" fill="none" xmlns="http://www.w3.org/2000/svg">
<g clip-path="url(#clip0_718_2118)">
<path d="M0.015625 25.3521V25.3536C0.0359736 26.1084 0.04225 26.8675 0.169561 27.6176C0.304469 28.4112 0.497318 29.1851 0.865244 29.9053C1.36266 30.8802 2.04579 31.7035 2.90809 32.3759C3.52721 32.8588 4.20353 33.2421 4.9522 33.484C6.04389 33.8361 7.17013 33.9711 8.31282 33.9777C9.02574 33.9822 9.73821 34 10.4514 33.997C15.6307 33.9752 20.8101 34.0344 25.9896 33.965C26.6769 33.9557 27.3529 33.8719 28.0275 33.7486C29.3203 33.5119 30.463 32.9602 31.4405 32.0881C32.5799 31.0719 33.3486 29.8283 33.6955 28.3273C33.9226 27.3462 33.9794 26.3509 33.9891 25.352V25.1527C33.9891 25.0754 33.9597 8.18072 33.957 7.95741C33.9494 7.34398 33.9042 6.73518 33.7892 6.13159C33.6494 5.39607 33.4517 4.67938 33.0995 4.01395C32.7277 3.31094 32.2618 2.67881 31.6856 2.12642C30.8031 1.28011 29.7846 0.681611 28.5989 0.365019C27.5279 0.0791481 26.4354 0.0158561 25.3349 0.0168471C25.3331 0.0165828 25.3289 0.00541747 25.3286 0H8.67083C8.6705 0.00568174 8.6703 0.0113636 8.66991 0.0168471C8.04531 0.0282766 7.41979 0.0235858 6.79837 0.10062C6.11762 0.185251 5.44341 0.312694 4.79906 0.550666C3.78414 0.926058 2.90235 1.51075 2.14912 2.29133C1.29573 3.1757 0.694197 4.19848 0.375028 5.38946C0.0902806 6.45208 0.0283102 7.53584 0.0267907 8.62726" fill="#FFFC00"/>
<path d="M17.1515 28.687C17.0809 28.687 17.0136 28.6844 16.9624 28.682C16.9218 28.6855 16.8798 28.687 16.8378 28.687C15.3555 28.687 14.3643 27.9863 13.4897 27.3675C12.8628 26.9246 12.2715 26.5066 11.5789 26.3913C11.2387 26.3349 10.9003 26.3063 10.5734 26.3063C9.98425 26.3063 9.51867 26.3977 9.17876 26.4641C8.96959 26.5049 8.78923 26.54 8.64983 26.54C8.50382 26.54 8.32643 26.5076 8.2525 26.2552C8.1939 26.056 8.15188 25.8631 8.11132 25.6774C8.00984 25.2131 7.93624 24.9297 7.76242 24.9028C5.90323 24.616 4.80474 24.1934 4.58593 23.6817C4.56301 23.6279 4.55019 23.5738 4.54735 23.5203C4.53882 23.3677 4.64651 23.2339 4.79688 23.209C6.27334 22.9659 7.58615 22.1855 8.69905 20.8888C9.56115 19.8849 9.98451 18.9258 10.03 18.8199C10.0319 18.8151 10.0343 18.8101 10.0366 18.8055C10.2512 18.3703 10.2938 17.9942 10.1639 17.688C9.92432 17.123 9.13093 16.8713 8.60603 16.7048C8.47548 16.6635 8.352 16.6244 8.25363 16.5853C7.78832 16.4015 7.02307 16.0132 7.12501 15.4772C7.19927 15.0863 7.71624 14.8141 8.13404 14.8141C8.25006 14.8141 8.35286 14.8345 8.43941 14.8751C8.91152 15.0963 9.33626 15.2084 9.70154 15.2084C10.1558 15.2084 10.3752 15.0354 10.4283 14.9863C10.4152 14.744 10.3992 14.4878 10.3837 14.2454C10.3837 14.2452 10.3834 14.2423 10.3834 14.2423C10.2768 12.546 10.1438 10.435 10.6838 9.22448C12.2999 5.60092 15.7272 5.31914 16.7388 5.31914C16.7658 5.31914 17.1798 5.31505 17.1798 5.31505C17.1985 5.31472 17.2188 5.31445 17.2398 5.31445C18.2542 5.31445 21.6886 5.59656 23.3057 9.2223C23.8457 10.4336 23.7126 12.5464 23.6056 14.2444L23.6006 14.3257C23.5859 14.5563 23.5724 14.7745 23.561 14.986C23.6109 15.032 23.8117 15.1906 24.2202 15.2066C24.5684 15.1933 24.9686 15.0817 25.4092 14.8754C25.5455 14.8114 25.6963 14.7981 25.7987 14.7981C25.9535 14.7981 26.111 14.8283 26.2423 14.883L26.2493 14.8857C26.6232 15.0185 26.8681 15.2837 26.8734 15.5624C26.8781 15.8222 26.6851 16.2104 25.7356 16.5854C25.6383 16.624 25.5142 16.6633 25.3831 16.7049C24.8578 16.8716 24.0651 17.1232 23.8255 17.6878C23.6953 17.9941 23.7382 18.37 23.9527 18.8052C23.9551 18.8099 23.9572 18.8147 23.9595 18.8198C24.0255 18.9746 25.6247 22.6209 29.1926 23.2087C29.3429 23.2337 29.4507 23.3677 29.4422 23.5199C29.439 23.5746 29.4258 23.6293 29.4027 23.6828C29.1854 24.1917 28.0869 24.6137 26.2272 24.9009C26.0527 24.9279 25.9791 25.21 25.8786 25.6718C25.837 25.8625 25.7946 26.0495 25.7368 26.246C25.6827 26.4308 25.5623 26.5211 25.369 26.5211H25.3399C25.214 26.5211 25.0357 26.4982 24.8108 26.4542C24.4177 26.3777 23.9769 26.3065 23.4162 26.3065C23.0893 26.3065 22.751 26.3352 22.4104 26.3915C21.7185 26.5068 21.1273 26.9242 20.5015 27.3665C19.6252 27.9862 18.6337 28.687 17.1515 28.687Z" fill="white"/>
<path d="M17.2417 5.61274C18.1967 5.61274 21.4852 5.86927 23.035 9.34366C23.5453 10.4877 23.4144 12.5602 23.3095 14.225C23.2931 14.4892 23.2769 14.7453 23.2637 14.9898L23.2581 15.0949L23.3283 15.1732C23.3566 15.2046 23.6219 15.4819 24.2119 15.5046L24.2214 15.5052L24.2313 15.505C24.6213 15.4901 25.0607 15.3689 25.5378 15.1454C25.6081 15.1125 25.7017 15.0965 25.8006 15.0965C25.9134 15.0965 26.0333 15.1177 26.1321 15.1593L26.147 15.1653C26.3972 15.2529 26.5741 15.4182 26.5768 15.5678C26.5782 15.6524 26.515 15.957 25.6281 16.3074C25.5415 16.3416 25.4274 16.378 25.2951 16.4197C24.7179 16.6029 23.846 16.8795 23.5525 17.571C23.3873 17.9605 23.4325 18.4202 23.6869 18.9371C23.7915 19.1814 25.439 22.8922 29.1461 23.5031C29.1453 23.5207 29.1408 23.5399 29.1309 23.5625C29.0681 23.7105 28.6687 24.2218 26.1836 24.6053C25.7947 24.6649 25.6994 25.1008 25.589 25.6075C25.5491 25.7889 25.5085 25.9721 25.4527 26.1612C25.4357 26.2184 25.4325 26.2216 25.3713 26.2216C25.3628 26.2216 25.3529 26.2216 25.3421 26.2216C25.2319 26.2216 25.0646 26.1987 24.8707 26.1607C24.5176 26.0919 24.0351 26.0075 23.4184 26.0075C23.0742 26.0075 22.7196 26.0375 22.3638 26.0969C21.6034 26.2233 20.9849 26.6607 20.3299 27.1237C19.4503 27.7453 18.5412 28.3885 17.154 28.3885C17.0934 28.3885 17.0343 28.3864 16.975 28.3834L16.9595 28.3828L16.9438 28.384C16.9098 28.3869 16.8755 28.3885 16.8405 28.3885C15.4535 28.3885 14.544 27.7455 13.6648 27.1237C13.0097 26.6607 12.3909 26.2233 11.6305 26.0969C11.2751 26.0377 10.9202 26.0075 10.5761 26.0075C9.95955 26.0075 9.47653 26.1019 9.12413 26.1708C8.93023 26.2087 8.76235 26.2412 8.65248 26.2412C8.5625 26.2412 8.56078 26.2359 8.54176 26.1709C8.486 25.9816 8.44523 25.7941 8.40553 25.613C8.2948 25.1057 8.19946 24.6674 7.81079 24.6078C5.32583 24.224 4.92638 23.7119 4.86336 23.5643C4.85351 23.541 4.84909 23.5212 4.8481 23.5036C8.5551 22.8933 10.2022 19.1823 10.3072 18.9371C10.562 18.4206 10.6072 17.961 10.4414 17.571C10.148 16.8799 9.27615 16.6029 8.69939 16.42C8.56679 16.378 8.45263 16.3416 8.36589 16.3074C7.61695 16.0114 7.38658 15.7134 7.4208 15.5327C7.46051 15.3244 7.82163 15.1126 8.13677 15.1126C8.20759 15.1126 8.26969 15.124 8.31561 15.1455C8.82743 15.3854 9.29465 15.507 9.70446 15.507C10.3487 15.507 10.6354 15.2073 10.6662 15.1731L10.736 15.095L10.7304 14.9904C10.7174 14.746 10.7013 14.49 10.6844 14.2263C10.5798 12.5611 10.449 10.49 10.9591 9.3459C12.5031 5.88427 15.7756 5.61743 16.7416 5.61743C16.7654 5.61743 17.1854 5.61313 17.1854 5.61313C17.2026 5.613 17.2217 5.61274 17.2417 5.61274ZM17.2417 5.01563H17.2406C17.2186 5.01563 17.1979 5.01562 17.1782 5.01589C17.0212 5.01747 16.7632 5.01999 16.74 5.02025C16.1741 5.02025 15.0417 5.10019 13.8254 5.63705C13.13 5.9438 12.5045 6.35856 11.9663 6.86985C11.3247 7.47906 10.802 8.23017 10.413 9.10265C9.84327 10.3801 9.97851 12.5318 10.0871 14.261L10.0875 14.2637C10.0991 14.4489 10.1114 14.6423 10.1225 14.8307C10.039 14.8691 9.90346 14.9096 9.70374 14.9096C9.38239 14.9096 9.00026 14.8068 8.56825 14.6044C8.44114 14.5452 8.29605 14.5153 8.13597 14.5153C7.87878 14.5153 7.60764 14.591 7.37244 14.7293C7.07653 14.903 6.88533 15.1486 6.8334 15.4209C6.79918 15.601 6.80083 15.9569 7.19624 16.3179C7.41373 16.5167 7.73323 16.6999 8.14562 16.8629C8.25384 16.9055 8.38227 16.9462 8.5183 16.9894C8.99035 17.1394 9.70479 17.3661 9.8911 17.8046C9.98551 18.0269 9.94488 18.3194 9.77066 18.673C9.7661 18.6827 9.76155 18.6921 9.75738 18.702C9.71385 18.8037 9.30767 19.7237 8.4745 20.6941C8.00107 21.2458 7.4796 21.707 6.92543 22.0651C6.24904 22.5022 5.51715 22.788 4.75032 22.9144C4.44918 22.9638 4.23414 23.2321 4.25092 23.537C4.25607 23.6248 4.27668 23.7125 4.31243 23.7972C4.31269 23.7977 4.31302 23.7983 4.31329 23.7987C4.43505 24.0835 4.71735 24.3255 5.17632 24.5389C5.73716 24.7994 6.57594 25.0185 7.66915 25.19C7.72438 25.295 7.78172 25.559 7.82143 25.7398C7.86299 25.9319 7.90633 26.1294 7.9681 26.3393C8.03476 26.5666 8.20766 26.8383 8.65182 26.8383C8.82016 26.8383 9.01374 26.8003 9.2379 26.7569C9.56619 26.6925 10.0151 26.6046 10.5754 26.6046C10.8861 26.6046 11.208 26.6319 11.5321 26.6858C12.1567 26.7898 12.6952 27.1702 13.3183 27.6107C14.2303 28.2554 15.2626 28.9851 16.8398 28.9851C16.8828 28.9851 16.926 28.9837 16.9686 28.9807C17.0207 28.9832 17.0853 28.9851 17.1535 28.9851C18.7312 28.9851 19.7632 28.2551 20.6742 27.611L20.6756 27.6097C21.2988 27.1697 21.8368 26.7898 22.4612 26.6858C22.7852 26.632 23.107 26.6046 23.4178 26.6046C23.9531 26.6046 24.3769 26.6728 24.7553 26.7466C25.0023 26.7953 25.1942 26.8186 25.3415 26.8186L25.3559 26.8189H25.3708C25.6957 26.8189 25.9344 26.6406 26.0255 26.3286C26.086 26.1232 26.1292 25.9302 26.1718 25.7349C26.2089 25.5655 26.2683 25.294 26.3235 25.1878C27.4174 25.016 28.2559 24.7973 28.8168 24.5369C29.2747 24.3245 29.5567 24.0828 29.6792 23.7992C29.7159 23.7142 29.7374 23.626 29.7422 23.5363C29.7594 23.2319 29.544 22.9631 29.2427 22.9137C25.8347 22.352 24.2993 18.8502 24.2358 18.7014C24.2318 18.6916 24.2271 18.6819 24.2223 18.6725C24.0481 18.3188 24.0079 18.0265 24.1023 17.8038C24.2882 17.3657 25.0022 17.1391 25.4746 16.9891C25.6114 16.946 25.7403 16.9051 25.8476 16.8626C26.3127 16.679 26.645 16.4797 26.8643 16.2534C27.1262 15.9837 27.1772 15.7252 27.174 15.5561C27.166 15.1469 26.8532 14.7833 26.3556 14.6052C26.1875 14.5357 25.9959 14.499 25.8007 14.499C25.6678 14.499 25.4711 14.5173 25.2849 14.6042C24.8861 14.7908 24.529 14.8928 24.2224 14.9073C24.0593 14.8991 23.945 14.8637 23.8709 14.83C23.8802 14.6704 23.8905 14.5064 23.9012 14.3354L23.9056 14.2622C24.0148 12.5319 24.1505 10.3785 23.5805 9.10014C23.1899 8.22455 22.6653 7.47152 22.0211 6.861C21.4808 6.34938 20.8532 5.93468 20.1552 5.62813C18.9407 5.09524 17.8084 5.01563 17.2417 5.01563Z" fill="#020202"/>
</g>
<defs>
<clipPath id="clip0_718_2118">
<rect width="34" height="34" fill="white"/>
</clipPath>
</defs>
</svg>
