<svg width="34" height="34" viewBox="0 0 34 34" fill="none" xmlns="http://www.w3.org/2000/svg">
<g clip-path="url(#clip0_718_2113)">
<path d="M17 34C26.3888 34 34 26.3888 34 17C34 7.61116 26.3888 0 17 0C7.61116 0 0 7.61116 0 17C0 26.3888 7.61116 34 17 34Z" fill="url(#paint0_linear_718_2113)"/>
<path d="M11.5078 18.2422L13.5247 23.8248C13.5247 23.8248 13.7769 24.3471 14.0469 24.3471C14.3169 24.3471 18.333 20.1691 18.333 20.1691L22.7991 11.543L11.5798 16.8012L11.5078 18.2422Z" fill="#C8DAEA"/>
<path d="M14.183 19.6738L13.7958 23.7887C13.7958 23.7887 13.6338 25.0495 14.8943 23.7887C16.1549 22.5278 17.3615 21.5556 17.3615 21.5556" fill="#A9C6D8"/>
<path d="M11.5401 18.4424L7.39129 17.0906C7.39129 17.0906 6.89545 16.8895 7.05511 16.4333C7.08798 16.3392 7.15428 16.2592 7.35261 16.1216C8.27189 15.4809 24.3676 9.69562 24.3676 9.69562C24.3676 9.69562 24.8221 9.54248 25.0901 9.64433C25.1564 9.66486 25.2161 9.70263 25.263 9.75378C25.3099 9.80493 25.3424 9.86763 25.3572 9.93546C25.3861 10.0553 25.3982 10.1785 25.3932 10.3017C25.3919 10.4082 25.379 10.5069 25.3692 10.6618C25.2712 12.2435 22.3375 24.0483 22.3375 24.0483C22.3375 24.0483 22.162 24.7391 21.5332 24.7627C21.3786 24.7677 21.2247 24.7415 21.0804 24.6857C20.9362 24.63 20.8047 24.5457 20.6938 24.438C19.4597 23.3765 15.1944 20.51 14.2519 19.8796C14.2307 19.8651 14.2128 19.8462 14.1994 19.8243C14.1861 19.8023 14.1776 19.7777 14.1746 19.7521C14.1614 19.6857 14.2336 19.6034 14.2336 19.6034C14.2336 19.6034 21.6607 13.0017 21.8583 12.3087C21.8736 12.255 21.8158 12.2285 21.7382 12.252C21.2449 12.4335 12.6936 17.8337 11.7498 18.4297C11.6819 18.4502 11.6101 18.4546 11.5401 18.4424Z" fill="white"/>
</g>
<defs>
<linearGradient id="paint0_linear_718_2113" x1="17" y1="34" x2="17" y2="0" gradientUnits="userSpaceOnUse">
<stop stop-color="#1D93D2"/>
<stop offset="1" stop-color="#38B0E3"/>
</linearGradient>
<clipPath id="clip0_718_2113">
<rect width="34" height="34" fill="white"/>
</clipPath>
</defs>
</svg>
