<svg width="147" height="20" viewBox="0 0 147 20" fill="none" xmlns="http://www.w3.org/2000/svg">
<g clip-path="url(#clip0_156_156)">
<path fill-rule="evenodd" clip-rule="evenodd" d="M44.0883 19.1765C40.8797 20 38.3841 20 36.4828 20C31.254 20 25.1934 17.4118 25.1934 10.1176C25.1934 2.82353 30.4221 0 37.5523 0C38.8595 0 41.5927 0.117647 43.4941 0.941177V5.17647C41.9492 4.23529 39.4537 3.88235 38.2653 3.88235C33.9872 3.88235 30.541 5.64706 30.541 10.2353C30.541 14 33.2742 16.3529 37.077 16.3529C37.79 16.3529 38.503 16.1176 38.9783 16V12.1176H35.8886V8.35294H43.9694V19.1765" fill="black"/>
<path fill-rule="evenodd" clip-rule="evenodd" d="M48.6035 0.353027H62.2696V4.00009H53.7135V8.00009H61.7943V11.6471H53.7135V16.1177H62.6262V19.7648H48.6035V0.353027Z" fill="black"/>
<path fill-rule="evenodd" clip-rule="evenodd" d="M71.776 11.5295H73.3208C75.1034 11.5295 77.2424 11.7648 77.2424 13.7648C77.2424 15.7648 75.2222 16.0001 73.3208 16.0001H71.776V11.5295ZM66.666 19.7648H74.9845C78.4308 19.7648 82.59 18.8236 82.59 14.1177C82.59 11.7648 81.2828 10.353 78.5496 9.88241V9.76476C80.6887 9.05888 81.9958 7.64712 81.9958 5.17653C81.9958 1.88241 79.2626 0.235352 75.5787 0.235352H66.666V19.7648ZM71.776 4.00006H73.3208C75.1034 4.00006 76.7671 4.1177 76.7671 5.88241C76.7671 7.52947 74.9845 8.00006 73.3208 8.00006H71.776V4.00006Z" fill="black"/>
<path fill-rule="evenodd" clip-rule="evenodd" d="M86.2754 0.353027H100.06V4.00009H91.5042V8.00009H99.585V11.6471H91.5042V16.1177H100.417V19.7648H86.2754V0.353027Z" fill="black"/>
<path fill-rule="evenodd" clip-rule="evenodd" d="M109.566 4.00009H110.873C112.893 4.00009 114.795 4.35303 114.795 6.11773C114.795 8.35303 112.656 8.35303 110.873 8.35303H109.566V4.00009ZM104.218 19.7648H109.447V12.1177H110.517C112.418 12.1177 113.131 13.0589 114.082 16.353L115.27 19.7648H120.618L118.716 14.5883C117.766 12.2354 117.647 10.706 115.983 10.2354C118.598 9.64714 119.786 7.88244 119.786 5.2942C119.786 2.00009 117.053 0.353027 113.488 0.353027H104.1V19.7648H104.218Z" fill="black"/>
<path d="M129.293 0.353027H124.064V19.7648H129.293V0.353027Z" fill="black"/>
<path fill-rule="evenodd" clip-rule="evenodd" d="M137.019 4.11773H132.146V0.353027H147.001V4.11773H142.129V19.7648H137.019V4.11773Z" fill="black"/>
<path d="M19.6079 0.353027H0V19.7648H19.6079V0.353027Z" fill="#0072BA"/>
</g>
<defs>
<clipPath id="clip0_156_156">
<rect width="147" height="20" fill="white"/>
</clipPath>
</defs>
</svg>
