<svg width="114" height="21" viewBox="0 0 114 21" fill="none" xmlns="http://www.w3.org/2000/svg">
<g clip-path="url(#clip0_156_167)">
<path d="M11.6176 7.75834C11.6176 10.3734 10.3599 12.1445 7.17457 12.1445H6.16808V3.81615C6.52589 3.79581 6.86006 3.79581 7.17457 3.79581C10.1906 3.79553 11.6176 5.22895 11.6176 7.75834ZM8.34801 15.7708C14.0474 15.7708 17.6509 12.8183 17.6509 7.67498C17.6506 2.02352 13.7955 0 7.50988 0C5.07897 0 2.14553 0.168149 0.0507812 0.421089V20.5789H6.16837V15.7708H8.34801ZM90.3141 7.75834C90.3141 10.3734 89.058 12.1445 85.8719 12.1445H84.8688V3.81615C85.2235 3.79581 85.5582 3.79581 85.8719 3.79581C88.8882 3.79553 90.3141 5.22895 90.3141 7.75834ZM87.0482 15.7708C92.743 15.7708 96.3485 12.8183 96.3485 7.67498C96.3485 2.02352 92.494 0 86.2078 0C83.7774 0 80.8423 0.168149 78.7472 0.421089V20.5789H84.868V15.7708H87.0482ZM104.309 5.56553C104.309 4.46955 105.4 3.96282 107.158 3.96282C109.087 3.96282 111.183 4.38476 112.607 4.97744L112.105 0.590383C110.511 0.25294 109.087 0 106.489 0C101.544 0 98.1928 1.96164 98.1928 6.07313C98.1928 13.1557 107.749 11.7232 107.749 15.0122C107.749 16.2761 106.825 16.9504 104.561 16.9504C102.553 16.9504 99.4497 16.2761 97.6062 15.3488L98.2786 19.9888C100.121 20.6634 102.635 20.9997 104.647 20.9997C109.758 20.9997 113.949 19.3125 113.949 14.2514C113.949 7.50683 104.309 8.77067 104.309 5.56553ZM74.1395 0.421089H68.022V20.5789H74.1395V0.421089ZM49.331 0.421089H43.2129V20.5789H49.331V0.421089ZM59.9749 16.5293V0.421089H53.8567V20.5789H64.9207L65.8417 16.5293H59.9749ZM38.6875 0.421089H32.5694V8.43323H26.1997V0.421089H20.0804V20.5789H26.1994V12.6501H32.5691V20.5789H38.6872L38.6875 0.421089Z" fill="#1978BE"/>
</g>
<defs>
<clipPath id="clip0_156_167">
<rect width="114" height="21" fill="white"/>
</clipPath>
</defs>
</svg>
