<svg width="968" height="227" viewBox="0 0 968 227" fill="none" xmlns="http://www.w3.org/2000/svg">
<path d="M228.056 176.211V6.91491H257.139V176.211H228.056Z" fill="white"/>
<path d="M290.923 51.5042H315.954L316.907 68.6723C324.536 54.8424 339.554 47.9275 355.049 47.9275C386.039 47.9275 401.296 72.7258 401.296 102.055V176.211H373.882V105.154C373.882 88.2248 367.207 72.7258 348.136 72.7258C330.495 72.7258 318.338 86.0788 318.338 103.724V176.211H290.923V51.5042Z" fill="white"/>
<path d="M427.736 113.738C427.736 78.9254 452.052 47.9275 489.002 47.9275C525.952 47.9275 548.36 75.8256 548.36 112.308V120.415H456.104C458.012 139.729 470.169 155.943 491.147 155.943C504.258 155.943 514.271 150.221 521.661 138.537L545.738 147.836C536.202 169.296 514.032 179.788 491.147 179.788C453.721 179.788 427.736 151.413 427.736 113.738ZM489.002 70.1029C471.123 70.1029 460.157 84.1712 456.82 100.862H519.754C517.131 84.4097 507.358 70.1029 489.002 70.1029Z" fill="white"/>
<path d="M574.119 51.5042H599.149L600.341 72.0105C606.539 58.1807 618.22 49.8351 633.477 49.8351C637.768 49.8351 642.297 50.312 646.35 51.9811L643.251 78.687C639.675 77.2563 635.861 77.0179 632.047 77.0179C610.592 77.0179 601.533 93.4706 601.533 113.023V176.211H574.119V51.5042Z" fill="white"/>
<path d="M659.716 111.354C659.716 77.9716 683.078 47.9275 718.598 47.9275C735.285 47.9275 750.065 55.0809 759.123 69.1492L760.077 51.5042H785.107V163.097C785.107 200.533 761.03 227 721.935 227C697.858 227 677.595 216.032 666.153 194.571L692.137 185.511C699.288 196.956 709.301 202.917 722.889 202.917C745.058 202.917 757.693 187.18 757.693 165.243V153.32C748.158 166.673 733.378 173.827 717.167 173.827C682.84 173.827 659.716 144.736 659.716 111.354ZM722.889 72.7258C701.911 72.7258 687.846 90.3708 687.846 110.877C687.846 130.907 701.672 149.028 722.889 149.028C744.105 149.028 758.17 131.622 758.17 110.877C758.17 90.3708 744.582 72.7258 722.889 72.7258Z" fill="white"/>
<path d="M844.454 176.211H817.04V51.5042H844.454V176.211ZM816.325 25.0368C814.656 22.4139 813.941 19.791 813.941 16.6912C813.941 13.5914 814.656 10.9685 816.325 8.34558C817.755 5.72269 819.662 3.81512 822.284 2.14601C824.907 0.715327 827.529 0 830.628 0C833.727 0 836.349 0.715327 838.971 2.14601C841.594 3.81512 843.501 5.72269 845.17 8.34558C846.6 10.9685 847.315 13.5914 847.315 16.6912C847.315 19.791 846.6 22.4139 845.17 25.0368C843.501 27.6597 841.594 29.5672 838.971 30.9979C836.349 32.667 833.727 33.3823 830.628 33.3823C827.529 33.3823 824.907 32.667 822.284 30.9979C819.662 29.5672 817.755 27.6597 816.325 25.0368Z" fill="white"/>
<path d="M868.593 146.405L893.385 139.967C897.676 151.174 907.45 157.136 919.369 157.136C928.905 157.136 940.586 152.605 940.586 141.398C940.586 130.668 929.143 126.853 920.323 125.422L912.456 123.992C892.193 120.415 872.169 110.639 872.169 87.271C872.169 61.5189 894.577 47.9275 918.654 47.9275C940.347 47.9275 959.895 59.1345 966.093 80.833L941.539 86.7941C937.487 76.3025 929.62 70.3414 918.416 70.3414C909.595 70.3414 899.106 74.8719 899.106 85.125C899.106 95.3782 912.694 98.4779 920.561 99.9086L928.428 101.339C948.691 104.678 968 115.884 968 138.775C968 165.481 944.161 179.788 919.131 179.788C896.961 179.788 875.506 168.581 868.593 146.405Z" fill="white"/>
<path d="M95.3545 44.2714C95.3545 24.0789 111.72 7.70974 131.907 7.70974C152.095 7.70974 168.46 24.0789 168.46 44.2714C168.46 64.4638 152.095 80.833 131.907 80.833C111.72 80.833 95.3545 64.4638 95.3545 44.2714Z" fill="#FFB700"/>
<path d="M0 44.2714C0 24.0789 16.3651 7.70974 36.5526 7.70974C56.74 7.70974 73.1051 24.0789 73.1051 44.2714C73.1051 64.4638 56.74 80.833 36.5526 80.833C16.3651 80.833 0 64.4638 0 44.2714Z" fill="#044BFF"/>
<path d="M95.3545 139.65C95.3545 119.457 111.72 103.088 131.907 103.088C152.095 103.088 168.46 119.457 168.46 139.65C168.46 159.842 152.095 176.211 131.907 176.211C111.72 176.211 95.3545 159.842 95.3545 139.65Z" fill="#4CC73F"/>
<path d="M0 139.65C0 119.457 16.3651 103.088 36.5526 103.088C56.74 103.088 73.1051 119.457 73.1051 139.65C73.1051 159.842 56.74 176.211 36.5526 176.211C16.3651 176.211 0 159.842 0 139.65Z" fill="#EC4545"/>
</svg>
