<svg width="288" height="67" viewBox="0 0 288 67" fill="none" xmlns="http://www.w3.org/2000/svg">
<path d="M69.9989 52.0095V2.04097H78.5673V52.0095H69.9989Z" fill="#18306C"/>
<path d="M88.5207 15.2017H95.8951L96.1761 20.2689C98.4235 16.187 102.848 14.146 107.413 14.146C116.544 14.146 121.039 21.4653 121.039 30.1218V52.0095H112.962V31.0368C112.962 26.0399 110.995 21.4653 105.377 21.4653C100.179 21.4653 96.5975 25.4065 96.5975 30.6145V52.0095H88.5207V15.2017Z" fill="#18306C"/>
<path d="M128.828 33.5704C128.828 23.2952 135.992 14.146 146.878 14.146C157.764 14.146 164.366 22.3803 164.366 33.1481V35.541H137.186C137.748 41.2416 141.33 46.0273 147.51 46.0273C151.373 46.0273 154.323 44.3382 156.5 40.8897L163.594 43.6345C160.784 49.9685 154.253 53.0651 147.51 53.0651C136.484 53.0651 128.828 44.6901 128.828 33.5704ZM146.878 20.6912C141.611 20.6912 138.38 24.8435 137.397 29.77H155.938C155.166 24.9139 152.286 20.6912 146.878 20.6912Z" fill="#18306C"/>
<path d="M171.955 15.2017H179.33L179.681 21.2542C181.507 17.1723 184.948 14.709 189.443 14.709C190.708 14.709 192.042 14.8498 193.236 15.3424L192.323 23.2248C191.269 22.8025 190.146 22.7321 189.022 22.7321C182.701 22.7321 180.032 27.5882 180.032 33.3592V52.0095H171.955V15.2017Z" fill="#18306C"/>
<path d="M197.174 32.8666C197.174 23.0137 204.057 14.146 214.521 14.146C219.438 14.146 223.792 16.2574 226.461 20.4097L226.742 15.2017H234.116V48.1387C234.116 59.188 227.023 67 215.505 67C208.411 67 202.441 63.7626 199.07 57.4286L206.726 54.7542C208.833 58.1324 211.782 59.8918 215.786 59.8918C222.317 59.8918 226.04 55.2469 226.04 48.7721V45.2532C223.23 49.1943 218.876 51.3057 214.1 51.3057C203.986 51.3057 197.174 42.7195 197.174 32.8666ZM215.786 21.4653C209.605 21.4653 205.461 26.6733 205.461 32.7258C205.461 38.6376 209.535 43.9863 215.786 43.9863C222.036 43.9863 226.18 38.8487 226.18 32.7258C226.18 26.6733 222.177 21.4653 215.786 21.4653Z" fill="#18306C"/>
<path d="M251.601 52.0095H243.524V15.2017H251.601V52.0095ZM243.314 7.38971C242.822 6.61554 242.611 5.84139 242.611 4.92647C242.611 4.01155 242.822 3.2374 243.314 2.46323C243.735 1.68907 244.297 1.12605 245.069 0.633404C245.842 0.211132 246.615 0 247.528 0C248.441 0 249.213 0.211132 249.986 0.633404C250.758 1.12605 251.32 1.68907 251.812 2.46323C252.233 3.2374 252.444 4.01155 252.444 4.92647C252.444 5.84139 252.233 6.61554 251.812 7.38971C251.32 8.16387 250.758 8.72689 249.986 9.14916C249.213 9.6418 248.441 9.85294 247.528 9.85294C246.615 9.85294 245.842 9.6418 245.069 9.14916C244.297 8.72689 243.735 8.16387 243.314 7.38971Z" fill="#18306C"/>
<path d="M258.713 43.2122L266.017 41.312C267.281 44.6198 270.161 46.3792 273.672 46.3792C276.482 46.3792 279.923 45.042 279.923 41.7342C279.923 38.5672 276.552 37.4412 273.953 37.0189L271.636 36.5966C265.666 35.541 259.766 32.6555 259.766 25.7584C259.766 18.1576 266.368 14.146 273.462 14.146C279.853 14.146 285.612 17.4538 287.438 23.8582L280.204 25.6176C279.01 22.521 276.692 20.7616 273.392 20.7616C270.793 20.7616 267.703 22.0987 267.703 25.125C267.703 28.1513 271.706 29.0662 274.024 29.4884L276.341 29.9107C282.311 30.896 288 34.2038 288 40.9601C288 48.8424 280.977 53.0651 273.602 53.0651C267.071 53.0651 260.75 49.7574 258.713 43.2122Z" fill="#18306C"/>
<path d="M14.1441 10.2641C14.0604 10.2898 13.9696 10.3479 13.7391 10.5251C13.5251 10.6894 13.4645 10.7137 13.2782 10.7137C13.132 10.7137 13.0122 10.6874 12.7284 10.5934C12.5256 10.5258 12.4901 10.5183 12.3597 10.519C12.2412 10.519 12.1753 10.5292 12.0812 10.563C11.8883 10.6326 11.7539 10.7705 11.7072 10.9477C11.692 11.0031 11.692 11.1019 11.7072 11.1945C11.7526 11.4873 11.8711 11.6671 12.0568 11.7273C12.1398 11.7537 12.1839 11.749 12.5408 11.6705C12.9009 11.5914 13.0392 11.5698 13.1887 11.5698C13.3138 11.5698 13.4803 11.6009 13.5429 11.6354C13.5877 11.6604 13.6397 11.7104 13.6726 11.7605C13.6884 11.7848 13.7128 11.8118 13.7266 11.8206L13.7523 11.8369V12.3102L13.7128 12.3264C13.6746 12.3413 13.6002 12.39 13.4132 12.5239C13.3052 12.6016 13.2848 12.6118 13.1959 12.6347C13.1248 12.653 13.1208 12.6537 12.9898 12.6496C12.8667 12.6456 12.8535 12.6462 12.8318 12.6577C12.7989 12.6753 12.7817 12.6956 12.762 12.7396C12.7291 12.8133 12.7231 12.9688 12.7488 13.0898L12.76 13.1426L12.8127 13.1649C12.8423 13.177 12.8818 13.1885 12.9009 13.1906L12.9358 13.1946L12.9319 13.3204C12.9279 13.4313 12.9286 13.4489 12.9385 13.4698C12.9444 13.4827 12.9813 13.5239 13.0194 13.5618L13.0892 13.6294L13.078 13.954C13.0655 14.3117 13.0649 14.3164 13.0194 14.4063C12.9635 14.5165 12.8706 14.622 12.7416 14.7221C12.6185 14.8168 12.6323 14.8107 12.5217 14.814C12.3531 14.8188 12.3307 14.8113 12.2162 14.7065C12.1852 14.6788 12.1464 14.6484 12.1299 14.6389C12.1121 14.6295 12.0996 14.618 12.0996 14.6112C12.0996 14.6011 12.093 14.5997 12.0588 14.5997C12.0357 14.5997 11.9969 14.5963 11.9712 14.5929C11.9073 14.5828 11.9021 14.5835 11.9021 14.5983C11.9021 14.6092 11.8955 14.6119 11.8613 14.6153C11.8382 14.6173 11.3885 14.6484 10.8618 14.6835C10.335 14.7194 9.89452 14.7498 9.88332 14.7518L9.86225 14.7545L9.8583 14.9865C9.85633 15.1136 9.85106 15.4747 9.84776 15.7891C9.84447 16.1035 9.83921 16.5065 9.83723 16.685L9.83262 17.0096L10.599 17.0894C11.0204 17.1333 11.509 17.184 11.6848 17.203C11.8606 17.2212 12.0259 17.2381 12.0522 17.2408L12.0996 17.2449V17.1617L12.1404 17.1306C12.2366 17.0589 12.2958 17.0305 12.4242 16.9967C12.525 16.9697 12.6092 16.9582 12.7021 16.9575C12.7857 16.9575 12.7929 16.9589 13.0379 17.0157C13.7431 17.1786 13.8359 17.1948 14.0091 17.1861C14.2132 17.1752 14.3389 17.1577 14.6313 17.0975C15.4293 16.9338 15.8738 16.8811 16.0436 16.9318C16.1371 16.9589 16.199 16.9954 16.2576 17.0562C16.3557 17.1577 16.3906 17.2611 16.4255 17.5519C16.4328 17.6127 16.442 17.6776 16.4459 17.6972C16.4598 17.7716 16.4637 17.9129 16.4571 18.1286C16.4466 18.5039 16.4631 18.5648 16.5849 18.6026C16.9305 18.7088 17.2584 18.7237 17.6173 18.6493C17.7766 18.6168 17.9366 18.5654 18.1473 18.4816C18.2257 18.4505 18.2454 18.4282 18.256 18.3619C18.2817 18.201 18.2191 17.3578 18.1467 16.8912C18.1105 16.6553 18.0848 16.5437 18.0321 16.3916C17.9287 16.0913 17.8392 15.9378 17.6798 15.7884C17.5047 15.6248 17.3118 15.4929 17.0609 15.3665C16.7172 15.1934 16.309 15.0581 15.8988 14.9811C15.8283 14.9682 15.7467 14.9527 15.7171 14.9473C15.6881 14.9418 15.6479 14.9324 15.6282 14.9256C15.5775 14.9087 15.4998 14.8526 15.4622 14.8053C15.4023 14.7295 15.3496 14.5983 15.3226 14.4584C15.3095 14.3901 15.3101 14.4077 15.3115 14.0845L15.3128 13.8025L15.3773 13.745C15.5228 13.6152 15.5162 13.6226 15.5274 13.5577C15.532 13.5259 15.5386 13.459 15.5412 13.409L15.5465 13.3177L15.5768 13.3136C15.6308 13.3055 15.6729 13.2744 15.6914 13.2284C15.7072 13.1899 15.7164 13.0526 15.7085 12.9776C15.692 12.818 15.6683 12.772 15.5926 12.7497C15.559 12.7396 15.5366 12.7382 15.4412 12.7423L15.3292 12.7463L15.2173 12.7085C15.0909 12.6659 14.9967 12.6226 14.9473 12.5847C14.9296 12.5705 14.8822 12.5212 14.8427 12.4745C14.8031 12.4278 14.7551 12.3765 14.736 12.3609L14.7004 12.3318V12.083C14.7004 11.9126 14.7024 11.8335 14.7077 11.8335C14.7235 11.8335 14.7623 11.7983 14.784 11.7645C14.8578 11.6502 14.9427 11.6056 15.133 11.5799C15.2278 11.5671 15.3167 11.5671 15.4346 11.5799C15.5531 11.5928 15.6268 11.6063 15.9087 11.6678C16.282 11.7496 16.3156 11.7537 16.4012 11.7287C16.6066 11.6678 16.7462 11.4197 16.7653 11.0796C16.7686 11.0234 16.7666 11.0025 16.7554 10.9578C16.7198 10.8199 16.6474 10.7171 16.5282 10.638C16.3867 10.5427 16.1806 10.4974 15.9995 10.5217C15.9198 10.5325 15.8929 10.54 15.7309 10.5941C15.455 10.6853 15.3273 10.7137 15.1811 10.7137C15.0955 10.7137 15.0698 10.7117 15.0198 10.6982C14.9263 10.6739 14.8749 10.6427 14.6971 10.5075C14.5213 10.373 14.4482 10.3229 14.3745 10.2871C14.2968 10.2499 14.2185 10.2418 14.1441 10.2641Z" fill="white"/>
<path d="M28.0932 13.0669C28.0932 7.107 32.9147 2.27556 38.8623 2.27556C44.8099 2.27556 49.6313 7.107 49.6313 13.0669C49.6313 19.0268 44.8099 23.8582 38.8623 23.8582C32.9147 23.8582 28.0932 19.0268 28.0932 13.0669Z" fill="#FFB700"/>
<path d="M0 13.0669C0 7.107 4.82147 2.27556 10.7691 2.27556C16.7167 2.27556 21.5381 7.107 21.5381 13.0669V13.5361C21.5381 19.4959 16.7167 24.3274 10.7691 24.3274C4.82147 24.3274 0 19.4959 0 13.5361V13.0669Z" fill="#044BFF"/>
<path d="M28.0932 41.2181C28.0932 35.2583 32.9147 30.4268 38.8623 30.4268C44.8099 30.4268 49.6313 35.2583 49.6313 41.2181C49.6313 47.178 44.8099 52.0095 38.8623 52.0095C32.9147 52.0095 28.0932 47.178 28.0932 41.2181Z" fill="#4CC73F"/>
<path d="M0 40.749C0 34.7891 4.82147 29.9576 10.7691 29.9576C16.7167 29.9576 21.5381 34.7891 21.5381 40.749V41.2181C21.5381 47.178 16.7167 52.0095 10.7691 52.0095C4.82147 52.0095 0 47.178 0 41.2181V40.749Z" fill="#EC4545"/>
</svg>
